<?xml version="1.0" standalone="no"?>
<!DOCTYPE svg PUBLIC "-//W3C//DTD SVG 20010904//EN"
 "http://www.w3.org/TR/2001/REC-SVG-20010904/DTD/svg10.dtd">
<svg version="1.0" xmlns="http://www.w3.org/2000/svg"
 width="700.000000pt" height="700.000000pt" viewBox="0 0 700.000000 700.000000"
 preserveAspectRatio="xMidYMid meet">
<metadata>
Created by potrace 1.11, written by Peter Selinger 2001-2013
</metadata>
<g transform="translate(0.000000,700.000000) scale(0.100000,-0.100000)"
fill="#000000" stroke="none">
<path d="M133 6285 c-103 -24 -127 -55 -129 -165 -2 -85 12 -131 48 -154 13
-8 97 -31 188 -51 195 -44 235 -56 315 -96 72 -35 101 -60 142 -120 49 -71 73
-139 91 -259 13 -83 0 -3679 -13 -3835 -18 -201 -50 -298 -124 -373 -94 -95
-179 -122 -436 -137 -161 -10 -184 -29 -192 -164 -4 -65 -1 -82 19 -120 13
-25 35 -54 51 -65 32 -23 60 -24 382 -11 271 11 777 11 1020 1 326 -14 339
-14 375 -5 20 5 49 22 64 38 28 30 58 115 52 148 -2 10 -7 38 -11 63 -15 91
-44 109 -189 115 -259 12 -367 48 -460 156 -55 64 -78 124 -92 234 -2 17 -6
46 -9 65 -12 84 -15 301 -21 1365 -3 622 -7 1394 -8 1717 -3 632 -2 649 44
545 13 -29 36 -79 51 -112 15 -33 39 -88 53 -123 14 -34 37 -85 50 -114 13
-29 74 -168 136 -308 169 -384 180 -409 216 -488 19 -41 34 -75 34 -77 0 -2
13 -32 29 -67 16 -35 90 -202 166 -373 75 -170 142 -323 150 -340 7 -16 47
-106 88 -200 80 -183 380 -861 402 -910 25 -55 216 -487 290 -655 40 -91 82
-185 93 -210 11 -25 57 -128 102 -230 44 -102 92 -197 106 -211 69 -72 260
-67 311 8 11 16 47 96 80 178 196 487 376 934 388 960 7 17 41 100 75 185 33
85 67 169 75 185 7 17 55 134 105 260 51 127 98 244 105 260 13 30 160 393
257 635 28 69 56 139 63 155 7 17 41 100 75 185 33 85 67 169 74 185 7 17 42
100 76 185 34 85 78 191 96 235 19 45 34 84 34 88 0 3 11 30 24 59 12 29 81
197 152 373 70 176 133 323 138 327 6 4 13 1 16 -7 7 -21 4 -3487 -4 -3574 -5
-66 -15 -135 -31 -226 -10 -52 -52 -128 -97 -174 -102 -104 -189 -132 -448
-146 -57 -3 -115 -11 -129 -18 -44 -21 -65 -71 -65 -156 -1 -88 19 -139 67
-173 35 -25 76 -27 417 -13 279 11 1174 11 1450 0 349 -14 381 -13 417 13 49
35 72 94 68 178 -6 135 -37 163 -187 169 -254 11 -357 43 -453 144 -64 67 -95
133 -110 236 -3 23 -7 50 -9 61 -16 80 -19 410 -19 1954 0 1519 3 1925 18
1950 1 3 6 32 9 65 21 190 156 338 336 369 19 3 46 8 60 10 14 3 77 7 140 11
148 8 179 21 202 90 33 94 8 213 -55 259 -32 24 -99 26 -432 12 -99 -4 -404
-9 -679 -11 -274 -2 -502 -7 -506 -12 -8 -7 -52 -114 -87 -207 -8 -22 -23 -59
-34 -82 -10 -24 -19 -46 -19 -49 0 -4 -6 -21 -14 -38 -15 -31 -31 -72 -223
-547 -52 -129 -101 -249 -109 -267 -8 -17 -14 -34 -14 -38 0 -3 -9 -25 -19
-48 -11 -23 -38 -89 -61 -147 -23 -58 -47 -118 -55 -135 -7 -16 -22 -55 -34
-85 -12 -30 -26 -64 -31 -75 -4 -11 -37 -92 -73 -180 -79 -195 -277 -684 -362
-895 -176 -435 -220 -542 -300 -740 -47 -118 -92 -228 -100 -245 -7 -16 -25
-61 -40 -100 -15 -38 -35 -88 -45 -110 -9 -22 -34 -84 -56 -138 -25 -63 -44
-96 -53 -95 -7 2 -80 154 -162 338 -82 184 -153 344 -159 355 -5 11 -39 88
-76 170 -36 83 -74 168 -84 190 -10 22 -27 60 -37 85 -68 153 -595 1335 -612
1371 -11 24 -67 150 -124 279 -57 129 -114 255 -125 280 -11 25 -50 110 -85
190 -154 346 -230 471 -378 619 -169 169 -452 310 -693 346 -21 3 -48 7 -60
10 -26 5 -73 12 -146 20 -30 3 -71 7 -90 10 -45 5 -323 16 -462 19 -59 1 -129
-3 -155 -9z"/>
</g>
</svg>
